<svg xmlns="http://www.w3.org/2000/svg" viewBox="0 0 200 220" fill="none" stroke="currentColor" stroke-linecap="round" stroke-linejoin="round">
  <!-- Tooth outline — matches Paul Ingles DMD original logo -->
  <path d="
    M 98 14
    C 68 10, 36 18, 26 46
    C 16 74, 28 104, 38 130
    C 48 156, 58 172, 68 194
    C 74 208, 80 214, 86 210
    C 94 204, 98 180, 100 160
    C 102 180, 106 204, 114 210
    C 120 214, 126 208, 132 194
    C 142 172, 152 156, 162 130
    C 172 104, 184 74, 174 46
    C 164 18, 132 10, 102 14
    Z
  " stroke-width="8"/>
  <!-- Crown highlight — organic swoop on upper left -->
  <path d="
    M 58 40
    C 64 28, 78 20, 92 18
    C 100 17, 112 20, 118 30
  " stroke-width="6.5" fill="none"/>
</svg>
